<svg width="63" height="57" viewBox="0 0 63 57" fill="none" xmlns="http://www.w3.org/2000/svg">
<path d="M58.0263 10.0588C59.3036 10.0582 60.5317 9.56065 61.4561 8.66933C62.3805 7.77801 62.9304 6.56122 62.9918 5.27111C63.0532 3.98099 62.6214 2.71645 61.7858 1.7395C60.9503 0.762554 59.7751 0.148102 58.5038 0.023468L58.0263 0H4.97368C3.69639 0.000637054 2.46829 0.498169 1.54388 1.38949C0.619461 2.28081 0.0695917 3.4976 0.00820903 4.78772C-0.0531737 6.07783 0.378636 7.34238 1.21416 8.31932C2.04969 9.29626 3.22487 9.91072 4.49621 10.0354L4.97368 10.0588H58.0263ZM58.0263 33.5294C59.3454 33.5294 60.6105 32.9995 61.5432 32.0563C62.476 31.1131 63 29.8339 63 28.5C63 27.1661 62.476 25.8869 61.5432 24.9437C60.6105 24.0005 59.3454 23.4706 58.0263 23.4706H4.97368C3.65458 23.4706 2.38951 24.0005 1.45676 24.9437C0.524012 25.8869 0 27.1661 0 28.5C0 29.8339 0.524012 31.1131 1.45676 32.0563C2.38951 32.9995 3.65458 33.5294 4.97368 33.5294H58.0263ZM58.0263 57C59.3454 57 60.6105 56.4701 61.5432 55.5269C62.476 54.5837 63 53.3045 63 51.9706C63 50.6367 62.476 49.3575 61.5432 48.4143C60.6105 47.4711 59.3454 46.9412 58.0263 46.9412H4.97368C3.65458 46.9412 2.38951 47.4711 1.45676 48.4143C0.524012 49.3575 0 50.6367 0 51.9706C0 53.3045 0.524012 54.5837 1.45676 55.5269C2.38951 56.4701 3.65458 57 4.97368 57H58.0263Z" fill="white"/>
</svg>
