<svg width="591" height="268" viewBox="0 0 591 268" fill="none" xmlns="http://www.w3.org/2000/svg">
<path d="M204.292 67.8541C205.393 62.8587 204.797 57.6426 202.596 53.0178C200.395 48.393 196.713 44.6188 192.122 42.2826L193.398 39.2356L190.392 38L189.116 41.047C184.205 39.4777 178.908 39.561 174.049 41.2842C169.19 43.0073 165.043 46.2735 162.252 50.5745C162.086 50.8347 161.998 51.1366 162 51.4444C162.002 51.7522 162.092 52.0532 162.261 52.3116C162.43 52.5701 162.67 52.7753 162.953 52.9029C163.235 53.0306 163.549 53.0754 163.857 53.032C165.279 52.7255 166.76 52.8146 168.135 53.2895C169.399 53.8447 170.494 54.718 171.311 55.8225C172.128 56.9271 172.639 58.2243 172.793 59.5852C172.849 59.853 172.97 60.1032 173.146 60.3139C173.322 60.5247 173.547 60.6897 173.802 60.7944C174.057 60.8992 174.334 60.9406 174.608 60.9151C174.883 60.8895 175.147 60.7978 175.378 60.6478C176.249 59.9783 177.248 59.4905 178.315 59.2137C179.382 58.9369 180.494 58.8769 181.584 59.0373L175.739 72.9977C175.326 73.9851 174.534 74.7694 173.537 75.178C172.54 75.5865 171.42 75.586 170.423 75.1763C169.426 74.7667 168.635 73.9816 168.223 72.9937C167.81 72.0059 167.811 70.8961 168.224 69.9087L168.536 69.164L165.53 67.9285L165.218 68.6731C164.474 70.4505 164.473 72.448 165.215 74.2262C165.957 76.0043 167.382 77.4175 169.176 78.1548C170.97 78.8922 172.986 78.8932 174.781 78.1578C176.575 77.4223 178.001 76.0106 178.746 74.2332L184.591 60.2714C185.476 60.9234 186.219 61.7463 186.774 62.6904C187.33 63.6345 187.686 64.6803 187.823 65.7646C187.863 66.0416 187.975 66.3034 188.148 66.5244C188.321 66.7455 188.549 66.9181 188.81 67.0253C189.071 67.1325 189.355 67.1706 189.636 67.1358C189.916 67.1011 190.182 66.9948 190.408 66.8273C191.489 65.9737 192.777 65.4154 194.143 65.2081C195.51 65.0007 196.907 65.1515 198.197 65.6454C199.507 66.2743 200.617 67.2499 201.403 68.4645C201.589 68.7113 201.843 68.9001 202.134 69.0085C202.425 69.117 202.741 69.1405 203.045 69.0764C203.349 69.0122 203.629 68.8631 203.85 68.6466C204.071 68.43 204.224 68.1546 204.292 67.8541ZM169.382 50.311C168.618 49.9968 167.813 49.791 166.99 49.6997C169.19 47.3031 171.942 45.4698 175.012 44.3567C178.082 43.2436 181.379 42.8838 184.62 43.3079C180.047 45.8891 176.475 49.9095 174.471 54.7312C173.305 52.7487 171.519 51.1969 169.382 50.311ZM184.413 56.4889C182.193 55.5882 179.731 55.4557 177.425 56.1128C178.865 52.8295 182.385 46.8231 189.243 44.9531C192.729 51.0589 190.935 57.7802 189.614 61.1174C188.454 59.0394 186.622 57.4089 184.413 56.4889ZM199.444 62.6668C197.302 61.794 194.932 61.6367 192.692 62.2186C194.721 57.4071 195.07 52.0621 193.684 47.0317C196.277 49.0054 198.348 51.5719 199.721 54.5117C201.094 57.4514 201.729 60.677 201.57 63.9126C200.924 63.4004 200.208 62.981 199.444 62.6668Z" fill="#0FA958"/>
<path d="M227 76.1306V67.8571H163.212V76.1306L191.692 108.015V129.391H173.619V137H216.592V129.391H198.522V108.015L227 76.1306ZM172.253 75.4657H217.95L211.801 82.3498H178.402L172.253 75.4657Z" fill="#9747FF"/>
<path d="M137.485 131.8C137.925 127.601 138.462 122.742 139.097 117.225C139.732 111.707 140.415 105.945 141.148 99.9395C141.88 93.8848 142.612 87.8057 143.345 81.7021C144.126 75.5986 144.883 69.8857 145.615 64.5635C143.027 69.5439 140.415 74.5488 137.778 79.5781C135.142 84.6074 132.627 89.3926 130.234 93.9336C127.891 98.4258 125.718 102.503 123.716 106.165C121.763 109.827 120.176 112.781 118.955 115.027C117.832 116.541 116.709 117.981 115.586 119.349C114.463 120.716 113.34 121.912 112.217 122.938C111.143 123.963 110.068 124.793 108.994 125.428C107.92 126.014 106.87 126.307 105.845 126.307C104.478 126.307 103.379 126.014 102.549 125.428C101.768 124.842 101.377 123.963 101.377 122.791C101.377 122.547 101.377 122.327 101.377 122.132C101.426 121.888 101.499 121.644 101.597 121.399C101.304 114.466 101.084 107.483 100.938 100.452C100.791 93.3721 100.718 86.4141 100.718 79.5781C100.718 77.9668 100.718 76.3555 100.718 74.7441C100.718 73.1328 100.742 71.5459 100.791 69.9834C98.838 74.3779 96.714 78.9434 94.419 83.6797C92.1241 88.416 89.7315 93.1035 87.2413 97.7422C84.7511 102.332 82.1876 106.775 79.5509 111.072C76.9142 115.32 74.2774 119.202 71.6407 122.718C69.004 126.185 66.3917 129.163 63.8038 131.653C61.2647 134.095 58.8233 135.804 56.4796 136.78C54.4288 137.61 52.6466 138.196 51.1329 138.538C49.6192 138.929 48.2765 139.124 47.1046 139.124C45.3468 139.124 44.0284 138.758 43.1495 138.025C42.3194 137.342 41.9044 136.487 41.9044 135.462C41.9044 134.241 42.4171 132.972 43.4425 131.653C44.4679 130.335 45.9083 129.31 47.7638 128.577C50.0099 127.698 52.4513 125.77 55.088 122.791C57.7735 119.764 60.5323 116.102 63.3644 111.805C66.1964 107.508 69.0528 102.723 71.9337 97.4492C74.8146 92.1758 77.5978 86.8291 80.2833 81.4092C83.0177 75.9893 85.5812 70.6914 87.9737 65.5156C90.3663 60.291 92.4903 55.5791 94.3458 51.3799C96.2013 47.1807 97.7149 43.6895 98.8868 40.9062C100.108 38.0742 100.864 36.3164 101.157 35.6328C101.841 34.1191 102.793 33.0205 104.014 32.3369C105.234 31.6533 106.48 31.3115 107.749 31.3115C109.507 31.3115 110.728 31.7998 111.411 32.7764C112.095 33.7041 112.437 35.3887 112.437 37.8301C112.827 40.9062 113.145 43.8115 113.389 46.5459C113.682 49.2314 113.926 52.0146 114.121 54.8955C114.317 57.7275 114.439 60.8037 114.487 64.124C114.585 67.3955 114.634 71.1797 114.634 75.4766C114.634 78.5527 114.561 81.9463 114.414 85.6572C114.317 89.3682 114.268 93.5186 114.268 98.1084C120.127 87.4639 125.303 78.0889 129.795 69.9834C134.336 61.8291 138.267 55.0176 141.587 49.5488C144.956 44.0313 147.788 39.8809 150.083 37.0977C152.378 34.2656 154.209 32.8496 155.576 32.8496H156.089C156.235 32.8496 156.382 32.8496 156.528 32.8496C156.675 32.8008 156.821 32.7764 156.968 32.7764C158.14 32.7764 159.067 33.5088 159.751 34.9736C160.435 36.4385 160.776 38.3428 160.776 40.6865C160.581 43.0791 160.288 46.0576 159.898 49.6221C159.507 53.1865 159.043 57.1172 158.506 61.4141C158.018 65.6621 157.481 70.1543 156.895 74.8906C156.309 79.627 155.723 84.3389 155.137 89.0264C154.551 93.665 153.989 98.1816 153.452 102.576C152.964 106.971 152.549 110.95 152.207 114.515C152.109 115.149 152.061 115.809 152.061 116.492C152.061 117.127 152.061 117.786 152.061 118.47C152.061 119.739 152.085 121.033 152.134 122.352C152.183 123.621 152.207 124.891 152.207 126.16C152.207 127.625 152.134 129.114 151.987 130.628C151.841 132.093 151.426 133.436 150.742 134.656C150.108 135.828 149.082 136.78 147.666 137.513C146.25 138.294 144.297 138.685 141.807 138.685C140.488 138.685 139.439 138.172 138.657 137.146C137.876 136.17 137.485 134.388 137.485 131.8Z" fill="white"/>
<path d="M337.18 49.7686C334.836 62.8545 328.22 80.042 317.332 101.331C314.353 107.386 311.692 112.708 309.348 117.298C307.004 121.888 304.758 125.745 302.61 128.87C300.461 131.946 298.289 134.266 296.091 135.828C293.943 137.391 291.55 138.172 288.914 138.172C287.107 138.172 285.569 137.732 284.299 136.854C283.03 135.975 281.931 134.29 281.003 131.8C280.076 129.261 279.294 125.721 278.66 121.18C278.025 116.639 277.463 110.682 276.975 103.309L260.642 127.259C259.177 129.407 257.786 131.238 256.467 132.752C255.198 134.217 253.928 135.413 252.659 136.341C251.438 137.22 250.168 137.854 248.85 138.245C247.532 138.636 246.14 138.831 244.675 138.831C242.576 138.831 240.818 138.221 239.402 137C238.035 135.779 237.351 133.997 237.351 131.653C237.351 128.187 237.351 124.378 237.351 120.228C237.4 116.028 237.522 111.365 237.717 106.238C237.913 101.062 238.206 95.374 238.596 89.1729C239.036 82.9229 239.646 75.9893 240.427 68.3721C238.718 70.374 237.278 71.8145 236.106 72.6934C234.934 73.5723 233.982 74.0117 233.25 74.0117C232.615 74.0117 232.151 73.7432 231.858 73.2061C231.565 72.6689 231.418 71.9365 231.418 71.0088C231.418 69.3975 231.834 67.3467 232.664 64.8564C233.494 62.3662 234.69 59.7051 236.252 56.873C237.815 54.041 239.744 51.2334 242.039 48.4502C244.382 45.6182 247.068 43.1035 250.095 40.9062C250.681 40.5156 251.34 40.3203 252.073 40.3203C252.952 40.3203 253.782 40.6377 254.563 41.2725C255.393 41.9072 256.101 42.7373 256.687 43.7627C257.322 44.7881 257.81 45.9355 258.152 47.2051C258.543 48.4746 258.738 49.7197 258.738 50.9404C258.738 52.1123 258.665 53.0889 258.518 53.8701C258.274 54.9443 258.03 55.8965 257.786 56.7266C257.59 57.5566 257.371 58.5576 257.126 59.7295C256.882 60.9014 256.614 62.4395 256.321 64.3438C256.028 66.1992 255.686 68.7139 255.295 71.8877C254.807 75.8916 254.417 79.9199 254.124 83.9727C253.879 88.0254 253.66 92.127 253.464 96.2773C253.269 100.379 253.074 104.529 252.878 108.729C252.732 112.928 252.561 117.176 252.366 121.473C253.44 120.154 254.685 118.47 256.101 116.419C257.517 114.319 258.982 112.122 260.496 109.827C262.009 107.483 263.499 105.14 264.963 102.796C266.428 100.452 267.747 98.3281 268.918 96.4238C270.139 94.5684 271.091 93.0547 271.775 91.8828L272.8 90.0518C274.607 85.4619 276.438 80.9453 278.293 76.502C280.149 72.0586 281.98 67.6396 283.787 63.2451C285.544 58.9482 287.4 55.6279 289.353 53.2842C291.306 50.9404 293.43 49.7686 295.725 49.7686C297.581 49.7686 299.07 50.1104 300.193 50.7939C301.316 51.4287 301.877 52.2588 301.877 53.2842C301.877 54.9932 301.438 57.0195 300.559 59.3633C299.729 61.6582 298.752 64.124 297.629 66.7607C296.506 69.3975 295.383 72.1074 294.26 74.8906C293.186 77.6738 292.38 80.335 291.843 82.874C291.599 87.1221 291.404 90.7354 291.257 93.7139C291.111 96.6924 291.038 99.4268 291.038 101.917C291.038 104.993 291.062 108.216 291.111 111.585C291.16 114.954 291.379 118.177 291.77 121.253C293.723 118.421 295.75 115.369 297.849 112.098C299.998 108.777 302.122 105.359 304.221 101.844C306.321 98.3281 308.347 94.7393 310.3 91.0771C312.253 87.3662 314.06 83.6797 315.72 80.0176C317.38 76.3555 318.821 72.7666 320.042 69.251C321.262 65.6865 322.19 62.293 322.825 59.0703L323.777 53.5771C323.777 53.3818 323.801 53.1865 323.85 52.9912C323.899 52.7959 323.923 52.6006 323.923 52.4053C324.216 50.9404 324.534 49.6221 324.876 48.4502C325.217 47.2783 325.657 46.3018 326.194 45.5205C326.78 44.6904 327.488 44.0557 328.318 43.6162C329.197 43.1768 330.271 42.957 331.541 42.957C333.64 42.957 335.154 43.1768 336.082 43.6162C337.058 44.0557 337.546 45.0322 337.546 46.5459C337.546 47.0342 337.498 47.5225 337.4 48.0107C337.351 48.499 337.278 49.085 337.18 49.7686ZM342.673 73.6455C342.673 72.5225 342.869 71.375 343.259 70.2031C343.699 68.9824 344.334 67.8838 345.164 66.9072C345.994 65.9307 347.019 65.125 348.24 64.4902C349.509 63.8555 350.999 63.5381 352.708 63.5381C355.54 63.5381 357.517 64.0996 358.64 65.2227C359.763 66.2969 360.325 67.6641 360.325 69.3242C360.325 70.252 360.129 71.2773 359.739 72.4004C359.397 73.5234 358.86 74.5732 358.127 75.5498C357.395 76.4775 356.443 77.2588 355.271 77.8936C354.099 78.5283 352.708 78.8457 351.096 78.8457C348.069 78.8457 345.945 78.3818 344.724 77.4541C343.503 76.4775 342.82 75.208 342.673 73.6455ZM334.617 90.125C335.447 88.7578 336.399 87.7812 337.473 87.1953C338.547 86.6094 339.646 86.3164 340.769 86.3164C342.625 86.3164 344.211 86.9268 345.53 88.1475C346.897 89.3193 347.581 90.833 347.581 92.6885C347.532 93.1279 347.459 93.5674 347.361 94.0068C347.312 94.4463 347.166 94.8857 346.921 95.3252C346.238 96.5947 345.676 97.6689 345.237 98.5479C344.797 99.4268 344.382 100.257 343.992 101.038C343.65 101.771 343.308 102.503 342.966 103.235C342.625 103.968 342.21 104.847 341.721 105.872C341.135 107.093 340.476 108.436 339.744 109.9C339.011 111.316 338.303 112.781 337.62 114.295C336.985 115.809 336.423 117.298 335.935 118.763C335.496 120.228 335.276 121.57 335.276 122.791C335.276 124.109 335.593 124.988 336.228 125.428C336.912 125.818 337.864 126.014 339.085 126.014C340.452 126.014 341.868 125.721 343.333 125.135C344.846 124.549 346.36 123.792 347.874 122.864C349.387 121.937 350.876 120.887 352.341 119.715C353.806 118.494 355.173 117.273 356.443 116.053C357.761 114.832 358.958 113.66 360.032 112.537C361.155 111.414 362.083 110.413 362.815 109.534C363.792 108.606 364.768 108.143 365.745 108.143C366.624 108.143 367.332 108.533 367.869 109.314C368.455 110.096 368.748 111.097 368.748 112.317C368.748 113.44 368.455 114.637 367.869 115.906C367.332 117.176 366.428 118.372 365.159 119.495C362.668 122.034 360.129 124.476 357.542 126.819C354.954 129.114 352.293 131.165 349.558 132.972C346.873 134.729 344.163 136.146 341.428 137.22C338.694 138.294 335.935 138.831 333.152 138.831C329.197 138.831 326.072 137.83 323.777 135.828C321.531 133.777 320.408 130.604 320.408 126.307C320.408 124.061 320.725 121.863 321.36 119.715C321.995 117.566 322.751 115.491 323.63 113.489C324.509 111.438 325.437 109.485 326.414 107.63C327.39 105.726 328.22 103.919 328.904 102.21C329.148 101.575 329.563 100.599 330.149 99.2803C330.784 97.9619 331.443 96.6191 332.126 95.252C332.908 93.6406 333.738 91.9316 334.617 90.125ZM371.897 92.542C372.874 90.4424 374.094 88.8799 375.559 87.8545C377.024 86.8291 378.464 86.3164 379.88 86.3164C381.052 86.3164 382.102 86.7559 383.03 87.6348C383.958 88.4648 384.421 89.71 384.421 91.3701C384.421 92.0049 384.348 92.6885 384.202 93.4209C384.055 94.1533 383.787 94.9346 383.396 95.7646C384.47 94.3975 386.008 93.0059 388.01 91.5898C390.012 90.125 392.21 88.8311 394.602 87.708C397.043 86.5361 399.534 85.584 402.073 84.8516C404.661 84.1191 407.102 83.7529 409.397 83.7529C411.985 83.7529 414.133 84.3877 415.842 85.6572C417.6 86.8779 418.479 88.9775 418.479 91.9561C418.479 93.7139 418.21 95.5449 417.673 97.4492C417.136 99.3535 416.428 101.258 415.549 103.162C414.719 105.066 413.767 106.946 412.693 108.802C411.668 110.608 410.642 112.317 409.617 113.929C408.591 115.54 407.639 117.029 406.76 118.396C405.93 119.715 405.271 120.813 404.783 121.692C404.148 122.474 403.831 123.377 403.831 124.402C403.831 124.793 403.953 125.135 404.197 125.428C404.441 125.721 404.832 125.867 405.369 125.867C405.71 125.867 406.101 125.843 406.541 125.794C406.98 125.696 407.517 125.428 408.152 124.988C410.789 124.012 413.474 122.791 416.209 121.326C418.992 119.861 421.653 118.323 424.192 116.712C426.731 115.052 429.05 113.416 431.15 111.805C433.298 110.145 435.081 108.655 436.497 107.337C436.887 106.995 437.278 106.751 437.668 106.604C438.059 106.458 438.425 106.385 438.767 106.385C439.597 106.385 440.232 106.702 440.671 107.337C441.16 107.972 441.404 108.777 441.404 109.754C441.404 111.268 440.916 112.952 439.939 114.808C439.011 116.663 437.522 118.396 435.471 120.008C432.688 122.01 430.125 123.841 427.781 125.501C425.486 127.161 423.118 128.724 420.676 130.188C418.284 131.604 415.696 132.947 412.913 134.217C410.178 135.438 406.956 136.585 403.245 137.659C401.975 138.05 400.803 138.343 399.729 138.538C398.704 138.733 397.751 138.831 396.873 138.831C394.285 138.831 392.38 138.123 391.16 136.707C389.988 135.242 389.402 133.216 389.402 130.628C389.402 130.286 389.402 129.969 389.402 129.676C389.451 129.334 389.5 128.968 389.548 128.577C389.646 127.063 390.037 125.403 390.72 123.597C391.453 121.79 392.307 119.935 393.284 118.03C394.309 116.126 395.383 114.246 396.506 112.391C397.629 110.486 398.655 108.704 399.583 107.044C400.559 105.335 401.365 103.821 402 102.503C402.634 101.185 402.952 100.11 402.952 99.2803C402.952 98.5479 402.732 97.9375 402.293 97.4492C401.902 96.9121 401.292 96.6436 400.461 96.6436C397.336 96.6436 394.358 97.5713 391.526 99.4268C388.743 101.282 386.13 103.577 383.689 106.312C381.248 108.997 379.001 111.854 376.951 114.881C374.9 117.908 373.093 120.618 371.531 123.011C370.554 124.622 369.651 126.355 368.821 128.211C368.04 130.018 367.21 131.727 366.331 133.338C365.452 134.9 364.451 136.194 363.328 137.22C362.253 138.294 360.886 138.831 359.226 138.831C357.517 138.831 356.174 138.294 355.198 137.22C354.221 136.146 353.733 134.827 353.733 133.265C353.733 132.435 354.075 131.092 354.758 129.236C355.442 127.381 356.321 125.232 357.395 122.791C358.469 120.35 359.666 117.737 360.984 114.954C362.351 112.122 363.694 109.339 365.012 106.604C366.379 103.821 367.673 101.209 368.894 98.7676C370.115 96.3262 371.116 94.251 371.897 92.542ZM460.154 93.7871C459.91 93.7383 459.69 93.7139 459.495 93.7139C459.299 93.7139 459.08 93.7139 458.835 93.7139C456.98 93.7139 455.247 94.0801 453.635 94.8125C452.024 95.5449 450.535 96.5215 449.168 97.7422C447.849 98.9141 446.653 100.257 445.579 101.771C444.553 103.284 443.626 104.798 442.795 106.312C441.965 107.776 441.257 109.192 440.671 110.56C440.134 111.927 439.719 113.074 439.426 114.002C441.135 113.123 442.893 112.122 444.7 110.999C446.555 109.876 448.289 108.802 449.9 107.776C451.511 106.751 452.903 105.823 454.075 104.993C455.295 104.163 456.15 103.602 456.638 103.309C458.835 101.941 460.349 100.672 461.179 99.5C462.009 98.2793 462.424 97.2295 462.424 96.3506C462.424 95.6182 462.18 95.0322 461.692 94.5928C461.252 94.1533 460.74 93.8848 460.154 93.7871ZM462.791 83.6797C466.843 83.6797 469.871 84.6562 471.873 86.6094C473.875 88.5625 474.876 91.2725 474.876 94.7393C474.876 96.79 474.338 98.9385 473.264 101.185C472.19 103.431 470.335 105.726 467.698 108.069C465.061 110.364 461.521 112.732 457.078 115.174C452.683 117.566 447.166 119.983 440.525 122.425C440.769 123.841 441.526 124.964 442.795 125.794C444.065 126.575 445.75 126.966 447.849 126.966C450.095 126.966 452.488 126.648 455.027 126.014C457.615 125.33 460.154 124.476 462.644 123.45C465.183 122.425 467.649 121.326 470.042 120.154C472.434 118.934 474.583 117.786 476.487 116.712C478.44 115.638 480.051 114.71 481.321 113.929C482.639 113.147 483.518 112.659 483.958 112.464C484.397 112.171 484.788 112 485.129 111.951C485.52 111.902 485.862 111.878 486.155 111.878C486.741 111.878 487.229 112.024 487.62 112.317C488.01 112.562 488.328 112.879 488.572 113.27C488.865 113.611 489.06 114.002 489.158 114.441C489.255 114.832 489.304 115.174 489.304 115.467C489.304 115.906 489.255 116.443 489.158 117.078C489.06 117.664 488.694 118.348 488.059 119.129C487.815 119.373 486.985 120.032 485.569 121.106C484.202 122.181 482.419 123.45 480.222 124.915C478.025 126.38 475.461 127.942 472.532 129.603C469.651 131.214 466.575 132.703 463.303 134.07C460.081 135.438 456.711 136.561 453.196 137.439C449.68 138.367 446.213 138.831 442.795 138.831C439.866 138.831 437.253 138.27 434.959 137.146C432.712 136.023 430.784 134.51 429.172 132.605C427.61 130.701 426.414 128.504 425.584 126.014C424.753 123.523 424.338 120.911 424.338 118.177C424.338 116.077 424.753 113.782 425.584 111.292C426.414 108.753 427.61 106.214 429.172 103.675C430.735 101.136 432.639 98.6699 434.885 96.2773C437.18 93.8359 439.744 91.6875 442.576 89.832C445.408 87.9766 448.508 86.4873 451.877 85.3643C455.295 84.2412 458.933 83.6797 462.791 83.6797ZM502.488 95.7646C505.466 97.3271 508.127 99.1094 510.471 101.111C512.815 103.113 514.793 105.237 516.404 107.483C518.064 109.681 519.309 111.927 520.139 114.222C521.018 116.517 521.458 118.763 521.458 120.96C521.458 123.743 520.652 126.258 519.041 128.504C517.478 130.701 515.403 132.581 512.815 134.144C510.276 135.657 507.346 136.805 504.026 137.586C500.754 138.416 497.434 138.831 494.065 138.831C491.526 138.831 489.06 138.538 486.668 137.952C484.275 137.415 482.078 136.561 480.076 135.389C478.123 134.217 476.438 132.728 475.022 130.921C473.606 129.065 472.605 126.868 472.019 124.329C471.921 123.938 471.873 123.621 471.873 123.377C471.873 122.059 472.336 120.936 473.264 120.008C474.192 119.031 475.217 118.543 476.34 118.543C476.877 118.543 477.463 118.641 478.098 118.836C478.782 119.031 479.294 119.471 479.636 120.154C480.271 121.326 481.15 122.376 482.273 123.304C483.445 124.231 484.739 125.037 486.155 125.721C487.571 126.355 489.06 126.868 490.623 127.259C492.234 127.601 493.796 127.771 495.31 127.771C496.873 127.771 498.362 127.625 499.778 127.332C501.243 127.039 502.512 126.575 503.586 125.94C504.71 125.306 505.588 124.5 506.223 123.523C506.858 122.547 507.175 121.351 507.175 119.935C507.175 117.444 506.614 115.149 505.491 113.05C504.368 110.95 502.903 109.021 501.096 107.264C499.338 105.457 497.312 103.797 495.017 102.283C492.771 100.721 490.525 99.2314 488.279 97.8154C488.035 97.6689 487.668 97.2539 487.18 96.5703C486.692 95.8379 486.448 95.1055 486.448 94.373C486.448 93.7871 486.594 93.3232 486.887 92.9814C487.668 91.9561 488.572 90.9062 489.597 89.832C490.623 88.7578 491.721 87.7812 492.893 86.9023C494.065 85.9746 495.335 85.2422 496.702 84.7051C498.069 84.1191 499.485 83.8262 500.95 83.8262C502.024 83.8262 503.025 83.9727 503.953 84.2656C504.88 84.5586 505.662 84.9492 506.296 85.4375C506.931 85.877 507.419 86.3896 507.761 86.9756C508.152 87.5127 508.347 88.0254 508.347 88.5137C508.347 89.1973 508.176 89.8564 507.835 90.4912C507.493 91.126 507.029 91.7363 506.443 92.3223C505.906 92.9082 505.271 93.4941 504.539 94.0801C503.855 94.666 503.171 95.2275 502.488 95.7646Z" fill="white"/>
</svg>
