<svg width="765" height="492" viewBox="0 0 765 492" fill="none" xmlns="http://www.w3.org/2000/svg">
<path d="M390.227 171.867C393.872 171.867 397.03 173.104 399.699 175.578C402.368 178.052 404.094 181.112 404.875 184.758L421.672 262.688H424.992C427.727 249.992 430.526 237.036 433.391 223.82C436.255 210.539 439.12 197.518 441.984 184.758C442.57 182.284 443.449 180.038 444.621 178.02C445.663 176.327 447.095 174.797 448.918 173.43C450.806 171.997 453.247 171.281 456.242 171.281C460.474 171.281 463.794 172.648 466.203 175.383C468.677 178.052 469.914 180.982 469.914 184.172C469.914 185.93 469.784 187.297 469.523 188.273C469.458 188.599 469.393 188.924 469.328 189.25C469.263 189.51 469.198 189.771 469.133 190.031L442.375 296.281C441.398 298.56 440.096 300.513 438.469 302.141C437.102 303.638 435.311 305.005 433.098 306.242C430.949 307.414 428.247 308 424.992 308H421.672C418.417 308 415.747 307.414 413.664 306.242C411.581 305.005 409.921 303.638 408.684 302.141C407.251 300.448 406.177 298.495 405.461 296.281L391.789 239.055H388.469C387.427 243.677 386.353 248.365 385.246 253.117C384.139 257.87 383 262.72 381.828 267.668C380.591 272.616 379.419 277.466 378.312 282.219C377.206 286.971 376.099 291.659 374.992 296.281C374.081 298.69 372.941 300.643 371.574 302.141C370.272 303.638 368.579 305.005 366.496 306.242C364.478 307.414 361.841 308 358.586 308H355.266C352.01 308 349.243 307.414 346.965 306.242C344.751 305.005 342.928 303.638 341.496 302.141C339.803 300.448 338.469 298.495 337.492 296.281L311.125 190.031C311.06 189.771 310.995 189.51 310.93 189.25C310.865 188.924 310.799 188.599 310.734 188.273C310.474 187.297 310.344 185.93 310.344 184.172C310.344 180.982 311.548 178.052 313.957 175.383C316.431 172.648 319.784 171.281 324.016 171.281C327.01 171.281 329.419 171.997 331.242 173.43C333.13 174.797 334.595 176.327 335.637 178.02C336.809 180.038 337.688 182.284 338.273 184.758L355.266 262.688H358.586C359.823 256.698 361.158 250.383 362.59 243.742C364.087 237.102 365.552 230.428 366.984 223.723C368.482 216.952 369.947 210.279 371.379 203.703C372.811 197.128 374.211 190.812 375.578 184.758C376.49 181.047 378.247 177.987 380.852 175.578C383.456 173.104 386.581 171.867 390.227 171.867ZM487.102 285.539V193.742C487.102 189.576 487.46 185.799 488.176 182.414C488.892 179.029 490.389 176.327 492.668 174.309C495.012 172.29 498.56 171.281 503.312 171.281C508.065 171.281 511.581 172.29 513.859 174.309C516.203 176.327 517.733 179.029 518.449 182.414C519.165 185.799 519.523 189.576 519.523 193.742V285.539C519.523 289.771 519.165 293.612 518.449 297.062C517.798 300.448 516.301 303.117 513.957 305.07C511.678 307.023 508.13 308 503.312 308C498.625 308 495.109 307.023 492.766 305.07C490.487 303.052 488.957 300.35 488.176 296.965C487.46 293.579 487.102 289.771 487.102 285.539ZM594.133 183.391L625.188 267.57H627.531V186.516C627.531 181.893 628.312 178.215 629.875 175.48C631.503 172.681 635.083 171.281 640.617 171.281C646.802 171.281 650.741 172.616 652.434 175.285C654.191 177.954 655.07 181.698 655.07 186.516V285.539C655.07 289.771 654.81 293.612 654.289 297.062C653.833 300.448 652.596 303.117 650.578 305.07C648.56 307.023 645.24 308 640.617 308H627.727C624.016 308 620.988 307.121 618.645 305.363C616.301 303.605 614.445 301.457 613.078 298.918C611.711 296.379 610.604 293.938 609.758 291.594L580.266 211.711H577.922V292.766C577.922 297.388 577.141 301.099 575.578 303.898C574.016 306.633 570.435 308 564.836 308C558.586 308 554.582 306.665 552.824 303.996C551.066 301.327 550.188 297.583 550.188 292.766V193.742C550.188 189.51 550.415 185.702 550.871 182.316C551.392 178.931 552.694 176.262 554.777 174.309C556.861 172.29 560.214 171.281 564.836 171.281H577.727C580.982 171.281 583.618 171.932 585.637 173.234C587.72 174.471 589.413 175.839 590.715 177.336C592.017 178.898 593.156 180.917 594.133 183.391ZM696.867 171.281H735.148C739.055 171.281 742.701 171.574 746.086 172.16C749.536 172.681 752.303 173.918 754.387 175.871C756.535 177.824 757.609 180.917 757.609 185.148C757.609 189.38 756.535 192.473 754.387 194.426C752.303 196.379 749.536 197.648 746.086 198.234C742.701 198.755 739.055 199.016 735.148 199.016H711.906V225.578H724.211C728.052 225.578 731.633 225.839 734.953 226.359C738.273 226.815 740.943 227.987 742.961 229.875C745.044 231.698 746.086 234.693 746.086 238.859C746.086 243.026 745.044 246.053 742.961 247.941C740.943 249.764 738.273 250.936 734.953 251.457C731.633 251.913 728.052 252.141 724.211 252.141H711.906V280.266H735.148C739.055 280.266 742.701 280.526 746.086 281.047C749.536 281.568 752.303 282.805 754.387 284.758C756.535 286.646 757.609 289.706 757.609 293.938C757.609 298.234 756.535 301.392 754.387 303.41C752.238 305.363 749.439 306.633 745.988 307.219C742.603 307.74 738.99 308 735.148 308H696.867C692.245 308 688.892 306.991 686.809 304.973C684.79 302.954 683.521 300.253 683 296.867C682.479 293.482 682.219 289.706 682.219 285.539V193.742C682.219 189.576 682.479 185.799 683 182.414C683.521 179.029 684.79 176.327 686.809 174.309C688.892 172.29 692.245 171.281 696.867 171.281Z" fill="white"/>
<path d="M335.93 321.281H364.25C376.555 321.281 386.548 324.243 394.23 330.168C398.072 333.163 401.066 336.874 403.215 341.301C405.363 345.728 406.438 350.904 406.438 356.828V417.375C406.438 422.453 405.884 426.913 404.777 430.754C403.671 434.595 402.238 437.948 400.48 440.812C398.658 443.612 396.607 446.021 394.328 448.039C392.049 450.057 389.738 451.685 387.395 452.922C381.926 455.917 375.578 457.609 368.352 458H335.93C331.242 458 327.857 457.023 325.773 455.07C323.69 453.117 322.388 450.448 321.867 447.062C321.346 443.677 321.086 439.836 321.086 435.539V343.547C321.086 339.315 321.346 335.539 321.867 332.219C322.388 328.833 323.69 326.164 325.773 324.211C327.857 322.258 331.242 321.281 335.93 321.281ZM363.469 344.133H350.773V434.758H363.469C366.138 434.693 368.645 434.042 370.988 432.805C373.202 431.698 374.992 430.038 376.359 427.824C377.792 425.546 378.508 422.648 378.508 419.133V361.516C378.508 357.674 377.792 354.484 376.359 351.945C374.992 349.406 373.202 347.518 370.988 346.281C368.775 345.044 366.268 344.328 363.469 344.133ZM431.242 435.539V343.742C431.242 339.576 431.6 335.799 432.316 332.414C433.033 329.029 434.53 326.327 436.809 324.309C439.152 322.29 442.701 321.281 447.453 321.281C452.206 321.281 455.721 322.29 458 324.309C460.344 326.327 461.874 329.029 462.59 332.414C463.306 335.799 463.664 339.576 463.664 343.742V435.539C463.664 439.771 463.306 443.612 462.59 447.062C461.939 450.448 460.441 453.117 458.098 455.07C455.819 457.023 452.271 458 447.453 458C442.766 458 439.25 457.023 436.906 455.07C434.628 453.052 433.098 450.35 432.316 446.965C431.6 443.579 431.242 439.771 431.242 435.539ZM538.273 333.391L569.328 417.57H571.672V336.516C571.672 331.893 572.453 328.215 574.016 325.48C575.643 322.681 579.224 321.281 584.758 321.281C590.943 321.281 594.882 322.616 596.574 325.285C598.332 327.954 599.211 331.698 599.211 336.516V435.539C599.211 439.771 598.951 443.612 598.43 447.062C597.974 450.448 596.737 453.117 594.719 455.07C592.701 457.023 589.38 458 584.758 458H571.867C568.156 458 565.129 457.121 562.785 455.363C560.441 453.605 558.586 451.457 557.219 448.918C555.852 446.379 554.745 443.938 553.898 441.594L524.406 361.711H522.062V442.766C522.062 447.388 521.281 451.099 519.719 453.898C518.156 456.633 514.576 458 508.977 458C502.727 458 498.723 456.665 496.965 453.996C495.207 451.327 494.328 447.583 494.328 442.766V343.742C494.328 339.51 494.556 335.702 495.012 332.316C495.533 328.931 496.835 326.262 498.918 324.309C501.001 322.29 504.354 321.281 508.977 321.281H521.867C525.122 321.281 527.759 321.932 529.777 323.234C531.861 324.471 533.553 325.839 534.855 327.336C536.158 328.898 537.297 330.917 538.273 333.391ZM641.008 321.281H679.289C683.195 321.281 686.841 321.574 690.227 322.16C693.677 322.681 696.444 323.918 698.527 325.871C700.676 327.824 701.75 330.917 701.75 335.148C701.75 339.38 700.676 342.473 698.527 344.426C696.444 346.379 693.677 347.648 690.227 348.234C686.841 348.755 683.195 349.016 679.289 349.016H656.047V375.578H668.352C672.193 375.578 675.773 375.839 679.094 376.359C682.414 376.815 685.083 377.987 687.102 379.875C689.185 381.698 690.227 384.693 690.227 388.859C690.227 393.026 689.185 396.053 687.102 397.941C685.083 399.764 682.414 400.936 679.094 401.457C675.773 401.913 672.193 402.141 668.352 402.141H656.047V430.266H679.289C683.195 430.266 686.841 430.526 690.227 431.047C693.677 431.568 696.444 432.805 698.527 434.758C700.676 436.646 701.75 439.706 701.75 443.938C701.75 448.234 700.676 451.392 698.527 453.41C696.379 455.363 693.579 456.633 690.129 457.219C686.743 457.74 683.13 458 679.289 458H641.008C636.385 458 633.033 456.991 630.949 454.973C628.931 452.954 627.661 450.253 627.141 446.867C626.62 443.482 626.359 439.706 626.359 435.539V343.742C626.359 339.576 626.62 335.799 627.141 332.414C627.661 329.029 628.931 326.327 630.949 324.309C633.033 322.29 636.385 321.281 641.008 321.281Z" fill="#0FA958"/>
<path d="M295.758 327.931C289.163 311.695 270.428 303.785 253.904 310.261C241.302 315.207 233.649 327.096 233.643 339.659H228.198H205.441L194.958 329.36C187.167 321.701 174.525 321.698 166.731 329.36L139 356.602L143.233 360.762L170.965 333.517C176.422 328.155 185.268 328.158 190.725 333.517L196.974 339.659H189.874C204.183 372.914 160.681 433.145 211.289 443.267C211.255 443.282 211.216 443.298 211.246 443.31C226.715 448.669 225.889 461.452 220.839 473.485C215.489 486.231 202.675 488.556 202.556 488.629C202.177 488.85 201.953 489.547 202.009 490.272C202.079 490.994 202.406 491.529 202.801 491.529H228.198H253.595C253.987 491.529 254.32 490.994 254.382 490.272C254.446 489.547 254.21 488.85 253.834 488.629C253.712 488.556 240.907 486.231 235.555 473.485C230.504 461.449 229.682 448.669 245.144 443.31C245.181 443.298 245.135 443.282 245.101 443.267C281.929 435.905 268.932 402.007 264.632 371.275C268.997 371.437 273.462 370.749 277.778 369.054C294.299 362.582 302.347 344.168 295.758 327.931ZM228.198 439.324C164.238 439.324 209.185 375.129 196.053 342.491H199.858L225.301 367.488C219.172 365.647 212.73 364.145 205.691 364.145C204.642 364.145 203.587 364.178 202.507 364.249C202.284 375.829 199.035 389.004 197.879 400.789C196.062 419.366 199.464 434.501 228.195 434.501C252.115 434.501 258.474 424.006 258.89 409.776C259.199 399.089 256.159 386.294 254.666 374.236C254.235 374.254 253.81 374.26 253.378 374.26C248.157 374.26 243.03 373.043 237.806 371.461L208.316 342.488H228.192H233.759C234.034 345.468 234.729 348.456 235.915 351.377C239.987 361.413 248.701 368.256 258.664 370.501C262.631 402.539 276.613 439.324 228.198 439.324ZM251.999 393.723L252.794 392.943C253.467 397.388 254.018 401.667 254.189 405.653C253.923 405.659 253.65 405.665 253.375 405.665C246.939 405.665 240.32 403.503 233.312 401.211C225.216 398.569 216.036 395.568 205.697 395.568C204.865 395.568 204.037 395.586 203.201 395.626C203.602 392.76 204.079 389.824 204.572 386.774C205.538 380.8 206.533 374.664 206.964 368.748C215.296 368.984 222.952 371.489 230.361 373.915C231.098 374.156 231.826 374.383 232.56 374.618L251.999 393.723ZM244.321 377.857C246.383 378.27 248.457 378.607 250.57 378.754C250.876 380.834 251.21 382.895 251.54 384.951L244.321 377.857ZM252.708 364.151C253.54 364.044 254.097 363.322 254.709 363.291C254.877 363.282 256.208 360.612 257.81 357.201C257.801 357.914 257.792 358.627 257.804 359.352C256.706 361.976 255.874 364.081 255.755 364.741C255.654 365.347 256.486 365.699 256.682 366.283C256.77 366.555 257.373 366.775 258.275 366.953C258.324 367.43 258.376 367.91 258.428 368.397C249.383 366.136 241.519 359.829 237.794 350.655C236.708 347.973 236.065 345.229 235.799 342.491H237.601C237.69 345.302 237.937 347.587 238.329 347.881C238.99 348.377 239.913 348.251 240.363 348.649C240.602 348.854 251.102 345.055 257.425 342.491H259C253.097 344.746 242.324 348.921 240.926 349.869C240.415 350.227 240.748 351.05 240.464 351.591C239.693 353.035 251.359 364.313 252.708 364.151ZM277.023 367.213C272.866 368.846 268.559 369.473 264.362 369.271C264.286 368.666 264.216 368.06 264.145 367.457C268.816 367.592 274.028 367.326 274.487 366.751C275.007 366.105 274.873 365.215 275.282 364.775C275.597 364.438 267.146 342.932 266.629 343.681C266.186 344.321 265.552 343.92 265.139 343.635C265.528 342.277 265.968 340.944 266.519 339.659H261.75C261.762 339.179 262.273 338.68 262.334 338.487C262.334 338.487 242.715 330.088 240.387 329.696C239.767 329.586 239.406 330.397 238.806 330.58C237.977 330.843 237.592 335.322 237.561 339.659H235.659C235.665 327.876 242.838 316.736 254.651 312.102C270.137 306.03 287.71 313.442 293.886 328.666C300.062 343.883 292.516 361.147 277.023 367.213Z" fill="#9747FF"/>
<path d="M275.178 313.059C274.668 311.509 258.196 311.542 257.364 312.585C256.853 313.231 256.985 314.127 256.575 314.564C256.26 314.904 264.72 336.41 265.231 335.661C265.815 334.811 266.757 335.814 267.039 335.9C267.039 335.9 275.689 316.855 276.096 314.592C276.203 313.992 275.371 313.638 275.178 313.059Z" fill="#0FA958"/>
<path d="M293.43 331.253C292.767 330.752 291.849 330.877 291.387 330.483C291.045 330.177 268.896 338.39 269.663 338.882C270.541 339.454 269.504 340.366 269.41 340.641C269.41 340.641 289.038 349.037 291.36 349.438C291.987 349.542 292.348 348.731 292.944 348.542C294.538 348.049 294.507 332.055 293.43 331.253Z" fill="#0FA958"/>
<path d="M253.788 315.017C252.302 314.271 240.675 325.598 240.846 326.907C240.956 327.717 241.691 328.259 241.73 328.852C241.761 329.308 263.393 338.711 263.212 337.827C263.01 336.82 264.408 336.894 264.671 336.759C264.671 336.759 256.914 317.348 255.559 315.47C255.189 314.965 254.342 315.289 253.788 315.017Z" fill="#9747FF"/>
<path d="M269.201 341.828C269.406 342.834 268.005 342.77 267.742 342.904C267.742 342.904 275.503 362.306 276.861 364.191C277.222 364.686 278.069 364.365 278.62 364.637C280.109 365.381 291.733 354.051 291.561 352.745C291.46 351.937 290.711 351.399 290.68 350.799C290.656 350.349 269.024 340.95 269.201 341.828Z" fill="#0FA958"/>
<path d="M267.92 336.585C268.96 336.38 268.893 337.741 269.027 337.998C269.027 337.998 289.01 330.467 290.953 329.146C291.464 328.797 291.13 327.965 291.412 327.427C292.179 325.983 280.513 314.702 279.167 314.864C278.335 314.968 277.775 315.693 277.164 315.73C276.705 315.754 267.024 336.756 267.92 336.585Z" fill="#0FA958"/>
<path d="M276.412 181.868C300.284 249.399 318.477 347.388 305.333 480.083" stroke="#0FA958" stroke-width="6.60721" stroke-linecap="round" stroke-linejoin="round"/>
<path d="M239.469 141.281C216.804 99.1098 157.445 86.9508 106.887 114.123C56.3293 141.295 33.7176 197.509 56.3824 239.681C74.1995 220.769 94.3819 204.036 116.244 189.848" stroke="#0FA958" stroke-width="6.60721" stroke-linecap="round" stroke-linejoin="round"/>
<path d="M438.234 49.9682C417.927 6.61158 359.329 -8.79988 307.35 15.5457C274.418 30.9699 252.045 58.6535 245.234 87.8969C241.295 104.809 242.563 122.244 250.004 138.131" stroke="#0FA958" stroke-width="6.60721" stroke-linecap="round" stroke-linejoin="round"/>
<path d="M249.934 140.622C226.926 131.957 201.251 139.042 181.843 156.817C171.678 166.127 163.232 178.37 157.79 192.819C141.96 234.85 157.548 279.627 192.607 292.832C194.708 237.837 215.233 183.338 249.934 140.622Z" stroke="#0FA958" stroke-width="6.60721" stroke-linecap="round" stroke-linejoin="round"/>
<path d="M490.083 205.763C504.828 149.763 462.357 90.037 395.221 72.3605C384.817 69.6214 374.432 68.0528 364.253 67.5659C308.752 64.9115 259.423 94.4293 246.964 141.75C331.854 136.26 418.905 159.18 490.083 205.763Z" stroke="#0FA958" stroke-width="6.60721" stroke-linecap="round" stroke-linejoin="round"/>
<path d="M219.467 49.7657C218.602 48.9297 217.721 48.1006 216.823 47.2804C199.359 31.3083 175.902 18.3015 149.141 11.6924C81.7428 -4.95433 16.3262 30.8038 4.00003 87.3846C26.537 84.9514 49.3139 84.5275 71.9865 86.0372" stroke="#0FA958" stroke-width="6.60721" stroke-linecap="round" stroke-linejoin="round"/>
<path d="M438.234 49.9681L424.162 48.7407" stroke="#0FA958" stroke-width="6.60721" stroke-linecap="round" stroke-linejoin="round"/>
</svg>
